HIERARCHY
ROOT reference
{
  OFFSET 0 0 0
  CHANNELS 6 Xposition Yposition Zposition Zrotation Xrotation Yrotation
  JOINT Hips
  {
    OFFSET 346.547 88.4868 223.89
    CHANNELS 3 Zrotation Xrotation Yrotation
    JOINT RightUpLeg
    {
      OFFSET -9.27468 -1.51611 -0.00175448
      CHANNELS 3 Zrotation Xrotation Yrotation
      JOINT RightLeg
      {
        OFFSET -0.00464511 -41.8738 0.0184652
        CHANNELS 3 Zrotation Xrotation Yrotation
        JOINT RightFoot
        {
          OFFSET -0.626239 -42.3044 -0.171503
          CHANNELS 3 Zrotation Xrotation Yrotation
          End Site
          {
            OFFSET 0 -7.69 17.5
          }
        }
      }
    }
    JOINT LeftUpLeg
    {
      OFFSET 9.30083 -1.68454 -0.0454748
      CHANNELS 3 Zrotation Xrotation Yrotation
      JOINT LeftLeg
      {
        OFFSET 0.0692631 -41.8513 -0.097029
        CHANNELS 3 Zrotation Xrotation Yrotation
        JOINT LeftFoot
        {
          OFFSET 0.520945 -41.523 0.446349
          CHANNELS 3 Zrotation Xrotation Yrotation
          End Site
          {
            OFFSET 0 -7.69 17.5
          }
        }
      }
    }
    JOINT Spine
    {
      OFFSET 0.0770133 14.2992 0.0590021
      CHANNELS 3 Zrotation Xrotation Yrotation
      JOINT Spine1
      {
        OFFSET 0.0471461 9.71665 0.020973
        CHANNELS 3 Zrotation Xrotation Yrotation
        JOINT Spine2
        {
          OFFSET 0.051283 10.117 0.000913966
          CHANNELS 3 Zrotation Xrotation Yrotation
          JOINT Spine3
          {
            OFFSET 0.0447963 9.71088 0.00221408
            CHANNELS 3 Zrotation Xrotation Yrotation
            JOINT Neck
            {
              OFFSET 0.115655 10.3749 0.0448519
              CHANNELS 3 Zrotation Xrotation Yrotation
              JOINT Head
              {
                OFFSET 0.0937003 9.47807 0.0215077
                CHANNELS 3 Zrotation Xrotation Yrotation
                End Site
                {
                  OFFSET 0 15.95 0
                }
              }
            }
            JOINT RightShoulder
            {
              OFFSET -3.17023 6.91072 -0.0050072
              CHANNELS 3 Zrotation Xrotation Yrotation
              JOINT RightArm
              {
                OFFSET -12.7573 0.00694711 0.0313031
                CHANNELS 3 Zrotation Xrotation Yrotation
                JOINT RightForeArm
                {
                  OFFSET -26.5152 -0.0619338 -0.0331286
                  CHANNELS 3 Zrotation Xrotation Yrotation
                  JOINT RightHand
                  {
                    OFFSET -25.9971 0.0398378 -0.0269922
                    CHANNELS 3 Zrotation Xrotation Yrotation
                    JOINT RightHandThumb1
                    {
                      OFFSET -2.48905 0.190105 3.12053
                      CHANNELS 3 Zrotation Xrotation Yrotation
                      JOINT RightHandThumb2
                      {
                        OFFSET -3.68274 0 0
                        CHANNELS 3 Zrotation Xrotation Yrotation
                        JOINT RightHandThumb3
                        {
                          OFFSET -2.55832 0 0
                          CHANNELS 3 Zrotation Xrotation Yrotation
                          End Site
                          {
                            OFFSET -2.194 0 0
                          }
                        }
                      }
                    }
                    JOINT RightInHandIndex
                    {
                      OFFSET -3.22368 0.508421 1.97842
                      CHANNELS 3 Zrotation Xrotation Yrotation
                      JOINT RightHandIndex1
                      {
                        OFFSET -5.21684 -0.091368 0.999158
                        CHANNELS 3 Zrotation Xrotation Yrotation
                        JOINT RightHandIndex2
                        {
                          OFFSET -3.61937 0 0
                          CHANNELS 3 Zrotation Xrotation Yrotation
                          JOINT RightHandIndex3
                          {
                            OFFSET -2.0521 0 0
                            CHANNELS 3 Zrotation Xrotation Yrotation
                            End Site
                            {
                              OFFSET -1.805 0 0
                            }
                          }
                        }
                      }
                    }
                    JOINT RightInHandMiddle
                    {
                      OFFSET -3.38211 0.517263 0.756737
                      CHANNELS 3 Zrotation Xrotation Yrotation
                      JOINT RightHandMiddle1
                      {
                        OFFSET -5.17411 -0.084 0.313895
                        CHANNELS 3 Zrotation Xrotation Yrotation
                        JOINT RightHandMiddle2
                        {
                          OFFSET -3.94947 0 0
                          CHANNELS 3 Zrotation Xrotation Yrotation
                          JOINT RightHandMiddle3
                          {
                            OFFSET -2.47579 0 0
                            CHANNELS 3 Zrotation Xrotation Yrotation
                            End Site
                            {
                              OFFSET -1.975 0 0
                            }
                          }
                        }
                      }
                    }
                    JOINT RightInHandRing
                    {
                      OFFSET -3.36516 0.537895 -0.128947
                      CHANNELS 3 Zrotation Xrotation Yrotation
                      JOINT RightHandRing1
                      {
                        OFFSET -4.63474 -0.022105 -0.478947
                        CHANNELS 3 Zrotation Xrotation Yrotation
                        JOINT RightHandRing2
                        {
                          OFFSET -3.44238 0 0
                          CHANNELS 3 Zrotation Xrotation Yrotation
                          JOINT RightHandRing3
                          {
                            OFFSET -2.3881 0 0
                            CHANNELS 3 Zrotation Xrotation Yrotation
                            End Site
                            {
                              OFFSET -1.857 0 0
                            }
                          }
                        }
                      }
                    }
                    JOINT RightInHandPinky
                    {
                      OFFSET -3.16105 0.469368 -1.20179
                      CHANNELS 3 Zrotation Xrotation Yrotation
                      JOINT RightHandPinky1
                      {
                        OFFSET -4.14105 -0.022105 -1.09053
                        CHANNELS 3 Zrotation Xrotation Yrotation
                        JOINT RightHandPinky2
                        {
                          OFFSET -2.75653 0 0
                          CHANNELS 3 Zrotation Xrotation Yrotation
                          JOINT RightHandPinky3
                          {
                            OFFSET -1.74189 0 0
                            CHANNELS 3 Zrotation Xrotation Yrotation
                            End Site
                            {
                              OFFSET -1.645 0 0
                            }
                          }
                        }
                      }
                    }
                  }
                }
              }
            }
            JOINT LeftShoulder
            {
              OFFSET 3.25178 6.92057 -0.0384945
              CHANNELS 3 Zrotation Xrotation Yrotation
              JOINT LeftArm
              {
                OFFSET 12.8462 -0.0383255 -0.0637898
                CHANNELS 3 Zrotation Xrotation Yrotation
                JOINT LeftForeArm
                {
                  OFFSET 26.4888 -0.0608964 -0.0673835
                  CHANNELS 3 Zrotation Xrotation Yrotation
                  JOINT LeftHand
                  {
                    OFFSET 25.9932 -0.0402352 -0.0274148
                    CHANNELS 3 Zrotation Xrotation Yrotation
                    JOINT LeftHandThumb1
                    {
                      OFFSET 2.48905 0.190105 3.12053
                      CHANNELS 3 Zrotation Xrotation Yrotation
                      JOINT LeftHandThumb2
                      {
                        OFFSET 3.68274 0 0
                        CHANNELS 3 Zrotation Xrotation Yrotation
                        JOINT LeftHandThumb3
                        {
                          OFFSET 2.55832 0 0
                          CHANNELS 3 Zrotation Xrotation Yrotation
                          End Site
                          {
                            OFFSET 2.194 0 0
                          }
                        }
                      }
                    }
                    JOINT LeftInHandIndex
                    {
                      OFFSET 3.22368 0.508421 1.97842
                      CHANNELS 3 Zrotation Xrotation Yrotation
                      JOINT LeftHandIndex1
                      {
                        OFFSET 5.21684 -0.091368 0.999158
                        CHANNELS 3 Zrotation Xrotation Yrotation
                        JOINT LeftHandIndex2
                        {
                          OFFSET 3.61937 0 0
                          CHANNELS 3 Zrotation Xrotation Yrotation
                          JOINT LeftHandIndex3
                          {
                            OFFSET 2.0521 0 0
                            CHANNELS 3 Zrotation Xrotation Yrotation
                            End Site
                            {
                              OFFSET 1.805 0 0
                            }
                          }
                        }
                      }
                    }
                    JOINT LeftInHandMiddle
                    {
                      OFFSET 3.38211 0.517263 0.756737
                      CHANNELS 3 Zrotation Xrotation Yrotation
                      JOINT LeftHandMiddle1
                      {
                        OFFSET 5.17411 -0.084 0.313895
                        CHANNELS 3 Zrotation Xrotation Yrotation
                        JOINT LeftHandMiddle2
                        {
                          OFFSET 3.94947 0 0
                          CHANNELS 3 Zrotation Xrotation Yrotation
                          JOINT LeftHandMiddle3
                          {
                            OFFSET 2.47579 0 0
                            CHANNELS 3 Zrotation Xrotation Yrotation
                            End Site
                            {
                              OFFSET 1.975 0 0
                            }
                          }
                        }
                      }
                    }
                    JOINT LeftInHandRing
                    {
                      OFFSET 3.36516 0.537895 -0.128947
                      CHANNELS 3 Zrotation Xrotation Yrotation
                      JOINT LeftHandRing1
                      {
                        OFFSET 4.63474 -0.022105 -0.478947
                        CHANNELS 3 Zrotation Xrotation Yrotation
                        JOINT LeftHandRing2
                        {
                          OFFSET 3.44238 0 0
                          CHANNELS 3 Zrotation Xrotation Yrotation
                          JOINT LeftHandRing3
                          {
                            OFFSET 2.3881 0 0
                            CHANNELS 3 Zrotation Xrotation Yrotation
                            End Site
                            {
                              OFFSET 1.857 0 0
                            }
                          }
                        }
                      }
                    }
                    JOINT LeftInHandPinky
                    {
                      OFFSET 3.16105 0.469368 -1.20179
                      CHANNELS 3 Zrotation Xrotation Yrotation
                      JOINT LeftHandPinky1
                      {
                        OFFSET 4.14105 -0.022105 -1.09053
                        CHANNELS 3 Zrotation Xrotation Yrotation
                        JOINT LeftHandPinky2
                        {
                          OFFSET 2.75653 0 0
                          CHANNELS 3 Zrotation Xrotation Yrotation
                          JOINT LeftHandPinky3
                          {
                            OFFSET 1.74189 0 0
                            CHANNELS 3 Zrotation Xrotation Yrotation
                            End Site
                            {
                              OFFSET 1.645 0 0
                            }
                          }
                        }
                      }
                    }
                  }
                }
              }
            }
          }
        }
      }
    }
  }
}
MOTION
Frames: 2
Frame Time: 0.00833333
7.500000000000000000e+02 0.000000000000000000e+00 0.000000000000000000e+00 0.000000000000000000e+00 0.000000000000000000e+00 0.000000000000000000e+00 1.872432434096002130e+00 -6.631991793767290311e+00 -1.308889575813169515e+01 1.034643962922197069e+01 9.498041976033983147e+00 1.236990436534500581e+01 -2.447152774775902984e+00 -5.277864459121975216e+00 2.273864302860061137e+00 -5.250306608317498736e+00 7.350703319407418057e+00 6.509947818368886807e+00 3.810117342759933301e+00 1.395597175941039225e+01 5.574094672028491182e+00 -9.699167142418311016e+00 -1.333042332069319214e+00 7.120491093366610791e+00 5.558419998374385607e+00 -2.118578560535377076e+00 8.271937868297099428e+00 -3.334586580284701451e+00 -4.417088071658237247e+00 3.074342523401431215e+00 -6.679087218786727842e-01 -1.502938787708617996e+00 7.083693002466723287e-01 -1.188747128067692893e+00 -2.532668776000116306e+00 1.151474769404682519e+00 1.720690454632662347e-01 -9.147839198936502658e-02 2.645369897698753858e-01 9.830244969642871755e-01 -5.600846822588195772e-01 -4.615128990520458996e-01 1.658004327449975834e+00 3.660166342782393833e+00 6.339494175891127625e+00 6.165314857295980389e+00 1.037580301214240830e+00 -8.884161989047273389e-01 -3.161093149230421773e+01 -4.736338091749370705e+00 1.076129619564024420e+00 -1.883779543569271198e+01 1.792678924066670731e+01 8.862550598718593520e+00 1.051591862138666178e+00 4.069089521259504849e+00 3.778332946506151035e+00 0.000000000000000000e+00 0.000000000000000000e+00 0.000000000000000000e+00 1.053600067942588665e-14 1.577796656963900316e-15 0.000000000000000000e+00 3.541094272459877094e-15 3.009550976072475714e-16 0.000000000000000000e+00 -3.290946580260601172e-15 8.755505827588236771e-16 2.147666660167353152e-15 0.000000000000000000e+00 0.000000000000000000e+00 0.000000000000000000e+00 0.000000000000000000e+00 5.561776973131784082e-15 9.406037137631340823e-15 0.000000000000000000e+00 -1.130360484567900209e-16 3.620222247117285980e-15 -3.290946580260601172e-15 8.755505827588236771e-16 2.147666660167353152e-15 0.000000000000000000e+00 -9.891754517411667526e-16 -5.390181439093668331e-15 0.000000000000000000e+00 -4.326118722348745497e-16 8.581049487192115250e-16 0.000000000000000000e+00 -3.314961934259186421e-15 1.769282369925851803e-15 -3.290946580260601172e-15 8.755505827588236771e-16 2.147666660167353152e-15 0.000000000000000000e+00 0.000000000000000000e+00 0.000000000000000000e+00 0.000000000000000000e+00 3.256405709337227446e-15 -1.691163037355990580e-15 0.000000000000000000e+00 1.611123646680205267e-15 1.006968309774943368e-14 -3.290946580260601172e-15 8.755505827588236771e-16 2.147666660167353152e-15 0.000000000000000000e+00 0.000000000000000000e+00 0.000000000000000000e+00 0.000000000000000000e+00 9.629359200884166830e-17 1.093326575027911579e-14 0.000000000000000000e+00 1.959347962041585187e-15 2.306456179264031932e-16 -5.874195868708221191e+00 -1.510771916138206272e+00 -5.410721753532423683e+00 -5.126809041934715871e+00 4.377431039553836833e-01 -1.652010999789885970e+00 8.864618595299081250e+00 -5.583224081717538034e+00 -4.234354358847009792e+01 -4.684658603180755221e-01 9.671697227367980210e-01 -1.699026390169735734e+01 0.000000000000000000e+00 0.000000000000000000e+00 0.000000000000000000e+00 1.062137701557177268e-15 -1.287655120802034482e-15 0.000000000000000000e+00 -1.072530306111524382e-15 -4.582173124073437405e-15 0.000000000000000000e+00 2.195971352489552541e-15 9.241640269655921728e-16 5.462778354060177660e-17 0.000000000000000000e+00 0.000000000000000000e+00 0.000000000000000000e+00 0.000000000000000000e+00 5.115060467674633934e-17 -1.018342153148733870e-15 0.000000000000000000e+00 1.637384990577629083e-15 -7.387046581966893148e-16 2.195971352489552541e-15 9.241640269655921728e-16 5.462778354060177660e-17 0.000000000000000000e+00 -5.234536984299577310e-16 -2.799906609608948625e-15 0.000000000000000000e+00 2.131236936975010756e-15 -3.082207044181674139e-15 0.000000000000000000e+00 -2.503621182652242381e-17 9.966768792314108733e-16 2.195971352489552541e-15 9.241640269655921728e-16 5.462778354060177660e-17 0.000000000000000000e+00 0.000000000000000000e+00 0.000000000000000000e+00 0.000000000000000000e+00 2.510950705950823692e-15 -1.521374656269574457e-15 0.000000000000000000e+00 -1.896990455290217986e-15 -1.291896210159475569e-15 2.195971352489552541e-15 9.241640269655921728e-16 5.462778354060177660e-17 0.000000000000000000e+00 0.000000000000000000e+00 0.000000000000000000e+00 0.000000000000000000e+00 -3.005638151046984480e-15 -1.608377602546635242e-15 0.000000000000000000e+00 5.731876786692775155e-16 -6.854552626445969857e-15
7.500000000000000000e+02 0.000000000000000000e+00 0.000000000000000000e+00 0.000000000000000000e+00 0.000000000000000000e+00 0.000000000000000000e+00 2.190471357883000625e+00 -6.250754991530294902e+00 -1.339953990129254358e+01 1.088907320233505693e+01 8.518971310474709568e+00 1.257696005654796956e+01 -2.588491698212386005e+00 -4.820149586700174460e+00 2.441622438711480658e+00 -5.315189369554943255e+00 7.498495114305911535e+00 6.812992512697760183e+00 4.365399474168072835e+00 1.341341541548355210e+01 5.755169569927465645e+00 -9.710336280816818544e+00 -1.025776728375558999e+00 7.149160075964644534e+00 5.547302991138551853e+00 -2.321121893130261959e+00 8.481269346471583148e+00 -3.277678666444084676e+00 -4.665156873735417875e+00 2.867666839706841664e+00 -6.652615377892862059e-01 -1.544946189235969936e+00 6.409625001975051140e-01 -1.178605162820320462e+00 -2.601835544615529905e+00 1.022766851061692295e+00 1.591757365033881488e-01 -1.079614139936084377e-01 3.209075539068249605e-01 9.657160554026760213e-01 -5.747779385673719155e-01 -6.388991277145295022e-01 1.296655084315203599e+00 3.277244367545198322e+00 7.609917610995553972e+00 6.337650673501513232e+00 9.663418135059088643e-01 -1.191040137004136579e+00 -3.086550981164668173e+01 -4.654189968744849359e+00 1.292089562125331881e+00 -1.926505918414193985e+01 1.749181995655817445e+01 1.056564143281774193e+01 1.057499890282511013e+00 4.158734171048603656e+00 5.028695746055825921e+00 0.000000000000000000e+00 0.000000000000000000e+00 0.000000000000000000e+00 1.059307671875762173e-14 1.467305204664225151e-15 0.000000000000000000e+00 3.781083326433013652e-15 2.988137507755724775e-16 0.000000000000000000e+00 -3.423780213198494278e-15 9.719225715967727568e-16 2.127326526034782802e-15 0.000000000000000000e+00 0.000000000000000000e+00 0.000000000000000000e+00 0.000000000000000000e+00 5.505673727362089664e-15 9.799505297098485001e-15 0.000000000000000000e+00 8.562103882845797005e-17 3.395919386645078976e-15 -3.423780213198494278e-15 9.719225715967727568e-16 2.127326526034782802e-15 0.000000000000000000e+00 -1.086217607906239468e-15 -5.951687838267449916e-15 0.000000000000000000e+00 -2.562559548911696719e-16 1.549631038440591702e-15 0.000000000000000000e+00 -3.139748656336981613e-15 1.997425698666926224e-15 -3.423780213198494278e-15 9.719225715967727568e-16 2.127326526034782802e-15 0.000000000000000000e+00 0.000000000000000000e+00 0.000000000000000000e+00 0.000000000000000000e+00 3.222618200009179798e-15 -1.510532266478921814e-15 0.000000000000000000e+00 1.662882969318451563e-15 1.022605365488877290e-14 -3.423780213198494278e-15 9.719225715967727568e-16 2.127326526034782802e-15 0.000000000000000000e+00 0.000000000000000000e+00 0.000000000000000000e+00 0.000000000000000000e+00 3.070047108580676715e-16 1.139075980425600375e-14 0.000000000000000000e+00 2.029549574783247541e-15 3.742539572866274672e-17 -6.155403727232197753e+00 -1.342099774409566626e+00 -5.671613650851178967e+00 -4.428470988617391413e+00 4.507695617083677386e-01 -2.276527594353083828e+00 1.087615544165126380e+01 -4.239358334712253651e+00 -4.108575585817698794e+01 -8.599904542308152156e-01 9.509722453211481019e-01 -1.692788466383362689e+01 0.000000000000000000e+00 0.000000000000000000e+00 0.000000000000000000e+00 9.758249012168609922e-16 -1.489777326078469306e-15 0.000000000000000000e+00 -7.029005044366960727e-16 -4.780681378101144708e-15 0.000000000000000000e+00 2.179512706895934983e-15 8.385984392016309976e-16 4.416964239417103199e-17 0.000000000000000000e+00 0.000000000000000000e+00 0.000000000000000000e+00 0.000000000000000000e+00 1.041361239190023406e-16 -1.182602871212478426e-15 0.000000000000000000e+00 1.563007448530296515e-15 -9.944730946035875349e-16 2.179512706895934983e-15 8.385984392016309976e-16 4.416964239417103199e-17 0.000000000000000000e+00 -3.592185380491673084e-16 -3.216081835180496162e-15 0.000000000000000000e+00 2.454390099189309749e-15 -3.592838079332814354e-15 0.000000000000000000e+00 -7.367072201128300867e-17 6.841917318876449122e-16 2.179512706895934983e-15 8.385984392016309976e-16 4.416964239417103199e-17 0.000000000000000000e+00 0.000000000000000000e+00 0.000000000000000000e+00 0.000000000000000000e+00 2.521453207297010110e-15 -2.278098332782237851e-15 0.000000000000000000e+00 -2.033260214052203926e-15 -1.714713626584649339e-15 2.179512706895934983e-15 8.385984392016309976e-16 4.416964239417103199e-17 0.000000000000000000e+00 0.000000000000000000e+00 0.000000000000000000e+00 0.000000000000000000e+00 -3.103465674260389958e-15 -2.316874195193530606e-15 0.000000000000000000e+00 6.154747122198868914e-16 -7.113121229797974772e-15
